<?xml version="1.0" encoding="UTF-8" standalone="no"?>
<!-- Created with Inkscape (http://www.inkscape.org/) -->

<svg
   xmlns:dc="http://purl.org/dc/elements/1.1/"
   xmlns:cc="http://creativecommons.org/ns#"
   xmlns:rdf="http://www.w3.org/1999/02/22-rdf-syntax-ns#"
   xmlns:svg="http://www.w3.org/2000/svg"
   xmlns="http://www.w3.org/2000/svg"
   xmlns:sodipodi="http://sodipodi.sourceforge.net/DTD/sodipodi-0.dtd"
   xmlns:inkscape="http://www.inkscape.org/namespaces/inkscape"
   width="616.242"
   height="389.8418"
   viewBox="0 0 616.24201 389.8418"
   id="svg11794"
   version="1.1"
   inkscape:version="0.91 r13725"
   sodipodi:docname="logo-nacita.svg"
   inkscape:export-filename="/home/samsul/Gambar/nacita/logo-nacita.png"
   inkscape:export-xdpi="300"
   inkscape:export-ydpi="300">
  <defs
     id="defs11796" />
  <sodipodi:namedview
     id="base"
     pagecolor="#ffffff"
     bordercolor="#666666"
     borderopacity="1.0"
     inkscape:pageopacity="0.0"
     inkscape:pageshadow="2"
     inkscape:zoom="0.31679517"
     inkscape:cx="-118.03388"
     inkscape:cy="80.424643"
     inkscape:document-units="px"
     inkscape:current-layer="layer1"
     showgrid="false"
     fit-margin-top="0"
     fit-margin-left="0"
     fit-margin-right="0"
     fit-margin-bottom="0"
     inkscape:window-width="1366"
     inkscape:window-height="713"
     inkscape:window-x="0"
     inkscape:window-y="27"
     inkscape:window-maximized="1"
     units="px" />
  <metadata
     id="metadata11799">
    <rdf:RDF>
      <cc:Work
         rdf:about="">
        <dc:format>image/svg+xml</dc:format>
        <dc:type
           rdf:resource="http://purl.org/dc/dcmitype/StillImage" />
        <dc:title></dc:title>
      </cc:Work>
    </rdf:RDF>
  </metadata>
  <g
     inkscape:label="Layer 1"
     inkscape:groupmode="layer"
     id="layer1"
     transform="translate(-61.189649,-10.65234)">
    <g
       id="g4136"
       transform="matrix(0.96564663,0,0,0.96564663,12.687077,7.0621344)">
      <path
         inkscape:connector-curvature="0"
         id="path12346"
         d="M 482.50977,10.652344 A 194.92133,194.92133 0 0 0 287.58984,205.57227 194.92133,194.92133 0 0 0 482.50977,400.49414 194.92133,194.92133 0 0 0 677.43164,205.57227 194.92133,194.92133 0 0 0 482.50977,10.652344 Z m -51.33204,131.015626 28.86915,0 0,23.54492 -28.86915,0 0,-23.54492 z m -61.6875,2.90234 c 6.71981,0 13.1713,0.75258 19.35352,2.25781 6.18222,1.50524 12.12191,3.73665 17.82031,6.69336 l 0,24.91602 c -5.75215,-3.92437 -11.42279,-6.79916 -17.01367,-8.62695 -5.59088,-1.82779 -11.47793,-2.74219 -17.66016,-2.74219 -11.07424,0 -19.78345,3.54841 -26.12695,10.64453 -6.3435,7.09612 -9.51562,16.8796 -9.51562,29.35156 0,12.41821 3.17212,22.17537 9.51562,29.27149 6.3435,7.09612 15.05271,10.64453 26.12695,10.64453 6.18223,0 12.06928,-0.9144 17.66016,-2.74219 5.59088,-1.82779 11.26152,-4.70454 17.01367,-8.6289 l 0,24.91796 c -5.6984,2.95672 -11.63809,5.18813 -17.82031,6.69336 -6.18222,1.50524 -12.63371,2.25782 -19.35352,2.25782 -20.05191,0 -35.9369,-5.59168 -47.65625,-16.77344 -11.71934,-11.23552 -17.58007,-26.44885 -17.58007,-45.64063 0,-19.24553 5.86073,-34.45886 17.58007,-45.64062 11.71935,-11.23552 27.60434,-16.85352 47.65625,-16.85352 z m 121.11915,6.61133 28.86718,0 0,25.64453 29.75586,0 0,20.64258 -29.75586,0 0,38.30273 c 0,4.19317 0.83349,7.04164 2.5,8.54688 1.66652,1.45148 4.97219,2.17773 9.91797,2.17773 l 14.83789,0 0,20.64453 -24.75586,0 c -11.39679,0 -19.48698,-2.36691 -24.27148,-7.09765 -4.73075,-4.78451 -7.09571,-12.87469 -7.0957,-24.27149 l 0,-38.30273 -14.35352,0 0,-20.64258 14.35352,0 0,-25.64453 z m 114.82812,23.4668 c 16.28882,0 28.03465,3.22476 35.23828,9.67578 7.2574,6.39726 10.88477,16.82608 10.88477,31.28711 l 0,51.52929 -29.10938,0 0,-13.38671 c -3.87061,5.48336 -8.22424,9.48897 -13.0625,12.01562 -4.83826,2.47289 -10.72531,3.70899 -17.66015,3.70899 -9.35398,0 -16.96064,-2.71493 -22.82032,-8.14454 -5.80591,-5.48336 -8.70898,-12.58018 -8.70898,-21.28906 0,-10.59042 3.62932,-18.35891 10.88672,-23.30469 7.31115,-4.94578 18.7616,-7.41796 34.35156,-7.41796 l 17.01367,0 0,-2.25782 c 0,-4.56947 -1.80052,-7.90146 -5.40234,-9.99804 -3.60182,-2.15034 -9.21981,-3.22657 -16.85352,-3.22657 -6.18222,0 -11.93377,0.61903 -17.25586,1.85547 -5.32209,1.23645 -10.26842,3.08961 -14.83789,5.5625 l 0,-22.01367 c 6.18223,-1.50524 12.39097,-2.6341 18.62696,-3.38672 6.23598,-0.80638 12.473,-1.20898 18.70898,-1.20898 z m -174.25977,2.17773 28.86915,0 0,90.31445 -28.86915,0 0,-90.31445 z m 176.27539,49.67188 c -6.02094,0 -10.56467,1.02163 -13.6289,3.06445 -3.01048,2.04282 -4.51563,5.05312 -4.51563,9.03125 0,3.65558 1.20978,6.53233 3.62891,8.62891 2.47289,2.04282 5.88775,3.06445 10.24219,3.06445 5.4296,0 9.99769,-1.93603 13.70703,-5.80664 3.70933,-3.92437 5.56445,-8.81611 5.56445,-14.67578 l 0,-3.30664 -14.99805,0 z"
         style="opacity:1;fill:#ff6600;fill-opacity:1;fill-rule:nonzero;stroke:none;stroke-width:10;stroke-linejoin:round;stroke-miterlimit:4;stroke-dasharray:none;stroke-opacity:1" />
      <text
         sodipodi:linespacing="125%"
         id="text12342"
         y="267.13965"
         x="46.029758"
         style="font-style:normal;font-weight:normal;font-size:165.14604187px;line-height:125%;font-family:sans-serif;letter-spacing:0px;word-spacing:0px;fill:#000000;fill-opacity:1;stroke:none;stroke-width:1px;stroke-linecap:butt;stroke-linejoin:miter;stroke-opacity:1"
         xml:space="preserve"><tspan
           style="font-weight:bold"
           y="267.13965"
           x="46.029758"
           id="tspan12344"
           sodipodi:role="line">Na</tspan></text>
    </g>
    <g
       transform="matrix(0.96564663,0,0,0.96564663,12.687077,410.60141)"
       id="g4137"
       style="fill:#000000">
      <path
         style="opacity:1;fill:#000000;fill-opacity:1;fill-rule:nonzero;stroke:none;stroke-width:10;stroke-linejoin:round;stroke-miterlimit:4;stroke-dasharray:none;stroke-opacity:1"
         d="M 482.50977,10.652344 A 194.92133,194.92133 0 0 0 287.58984,205.57227 194.92133,194.92133 0 0 0 482.50977,400.49414 194.92133,194.92133 0 0 0 677.43164,205.57227 194.92133,194.92133 0 0 0 482.50977,10.652344 Z m -51.33204,131.015626 28.86915,0 0,23.54492 -28.86915,0 0,-23.54492 z m -61.6875,2.90234 c 6.71981,0 13.1713,0.75258 19.35352,2.25781 6.18222,1.50524 12.12191,3.73665 17.82031,6.69336 l 0,24.91602 c -5.75215,-3.92437 -11.42279,-6.79916 -17.01367,-8.62695 -5.59088,-1.82779 -11.47793,-2.74219 -17.66016,-2.74219 -11.07424,0 -19.78345,3.54841 -26.12695,10.64453 -6.3435,7.09612 -9.51562,16.8796 -9.51562,29.35156 0,12.41821 3.17212,22.17537 9.51562,29.27149 6.3435,7.09612 15.05271,10.64453 26.12695,10.64453 6.18223,0 12.06928,-0.9144 17.66016,-2.74219 5.59088,-1.82779 11.26152,-4.70454 17.01367,-8.6289 l 0,24.91796 c -5.6984,2.95672 -11.63809,5.18813 -17.82031,6.69336 -6.18222,1.50524 -12.63371,2.25782 -19.35352,2.25782 -20.05191,0 -35.9369,-5.59168 -47.65625,-16.77344 -11.71934,-11.23552 -17.58007,-26.44885 -17.58007,-45.64063 0,-19.24553 5.86073,-34.45886 17.58007,-45.64062 11.71935,-11.23552 27.60434,-16.85352 47.65625,-16.85352 z m 121.11915,6.61133 28.86718,0 0,25.64453 29.75586,0 0,20.64258 -29.75586,0 0,38.30273 c 0,4.19317 0.83349,7.04164 2.5,8.54688 1.66652,1.45148 4.97219,2.17773 9.91797,2.17773 l 14.83789,0 0,20.64453 -24.75586,0 c -11.39679,0 -19.48698,-2.36691 -24.27148,-7.09765 -4.73075,-4.78451 -7.09571,-12.87469 -7.0957,-24.27149 l 0,-38.30273 -14.35352,0 0,-20.64258 14.35352,0 0,-25.64453 z m 114.82812,23.4668 c 16.28882,0 28.03465,3.22476 35.23828,9.67578 7.2574,6.39726 10.88477,16.82608 10.88477,31.28711 l 0,51.52929 -29.10938,0 0,-13.38671 c -3.87061,5.48336 -8.22424,9.48897 -13.0625,12.01562 -4.83826,2.47289 -10.72531,3.70899 -17.66015,3.70899 -9.35398,0 -16.96064,-2.71493 -22.82032,-8.14454 -5.80591,-5.48336 -8.70898,-12.58018 -8.70898,-21.28906 0,-10.59042 3.62932,-18.35891 10.88672,-23.30469 7.31115,-4.94578 18.7616,-7.41796 34.35156,-7.41796 l 17.01367,0 0,-2.25782 c 0,-4.56947 -1.80052,-7.90146 -5.40234,-9.99804 -3.60182,-2.15034 -9.21981,-3.22657 -16.85352,-3.22657 -6.18222,0 -11.93377,0.61903 -17.25586,1.85547 -5.32209,1.23645 -10.26842,3.08961 -14.83789,5.5625 l 0,-22.01367 c 6.18223,-1.50524 12.39097,-2.6341 18.62696,-3.38672 6.23598,-0.80638 12.473,-1.20898 18.70898,-1.20898 z m -174.25977,2.17773 28.86915,0 0,90.31445 -28.86915,0 0,-90.31445 z m 176.27539,49.67188 c -6.02094,0 -10.56467,1.02163 -13.6289,3.06445 -3.01048,2.04282 -4.51563,5.05312 -4.51563,9.03125 0,3.65558 1.20978,6.53233 3.62891,8.62891 2.47289,2.04282 5.88775,3.06445 10.24219,3.06445 5.4296,0 9.99769,-1.93603 13.70703,-5.80664 3.70933,-3.92437 5.56445,-8.81611 5.56445,-14.67578 l 0,-3.30664 -14.99805,0 z"
         id="path4139"
         inkscape:connector-curvature="0" />
      <text
         xml:space="preserve"
         style="font-style:normal;font-weight:normal;font-size:165.14604187px;line-height:125%;font-family:sans-serif;letter-spacing:0px;word-spacing:0px;fill:#000000;fill-opacity:1;stroke:none;stroke-width:1px;stroke-linecap:butt;stroke-linejoin:miter;stroke-opacity:1"
         x="46.029758"
         y="267.13965"
         id="text4141"
         sodipodi:linespacing="125%"><tspan
           sodipodi:role="line"
           id="tspan4143"
           x="46.029758"
           y="267.13965"
           style="font-weight:bold;fill:#000000">Na</tspan></text>
    </g>
    <rect
       style="opacity:1;fill:#000000;fill-opacity:1;fill-rule:nonzero;stroke:none;stroke-width:9.73499966;stroke-miterlimit:4;stroke-dasharray:none;stroke-opacity:1"
       id="rect4153"
       width="616.242"
       height="389.8418"
       x="61.189655"
       y="-384.42279" />
    <g
       transform="matrix(0.96564663,0,0,0.96564663,12.687077,-388.01301)"
       id="g4145"
       style="fill:#ffffff">
      <path
         style="opacity:1;fill:#ffffff;fill-opacity:1;fill-rule:nonzero;stroke:none;stroke-width:10;stroke-linejoin:round;stroke-miterlimit:4;stroke-dasharray:none;stroke-opacity:1"
         d="M 482.50977,10.652344 A 194.92133,194.92133 0 0 0 287.58984,205.57227 194.92133,194.92133 0 0 0 482.50977,400.49414 194.92133,194.92133 0 0 0 677.43164,205.57227 194.92133,194.92133 0 0 0 482.50977,10.652344 Z m -51.33204,131.015626 28.86915,0 0,23.54492 -28.86915,0 0,-23.54492 z m -61.6875,2.90234 c 6.71981,0 13.1713,0.75258 19.35352,2.25781 6.18222,1.50524 12.12191,3.73665 17.82031,6.69336 l 0,24.91602 c -5.75215,-3.92437 -11.42279,-6.79916 -17.01367,-8.62695 -5.59088,-1.82779 -11.47793,-2.74219 -17.66016,-2.74219 -11.07424,0 -19.78345,3.54841 -26.12695,10.64453 -6.3435,7.09612 -9.51562,16.8796 -9.51562,29.35156 0,12.41821 3.17212,22.17537 9.51562,29.27149 6.3435,7.09612 15.05271,10.64453 26.12695,10.64453 6.18223,0 12.06928,-0.9144 17.66016,-2.74219 5.59088,-1.82779 11.26152,-4.70454 17.01367,-8.6289 l 0,24.91796 c -5.6984,2.95672 -11.63809,5.18813 -17.82031,6.69336 -6.18222,1.50524 -12.63371,2.25782 -19.35352,2.25782 -20.05191,0 -35.9369,-5.59168 -47.65625,-16.77344 -11.71934,-11.23552 -17.58007,-26.44885 -17.58007,-45.64063 0,-19.24553 5.86073,-34.45886 17.58007,-45.64062 11.71935,-11.23552 27.60434,-16.85352 47.65625,-16.85352 z m 121.11915,6.61133 28.86718,0 0,25.64453 29.75586,0 0,20.64258 -29.75586,0 0,38.30273 c 0,4.19317 0.83349,7.04164 2.5,8.54688 1.66652,1.45148 4.97219,2.17773 9.91797,2.17773 l 14.83789,0 0,20.64453 -24.75586,0 c -11.39679,0 -19.48698,-2.36691 -24.27148,-7.09765 -4.73075,-4.78451 -7.09571,-12.87469 -7.0957,-24.27149 l 0,-38.30273 -14.35352,0 0,-20.64258 14.35352,0 0,-25.64453 z m 114.82812,23.4668 c 16.28882,0 28.03465,3.22476 35.23828,9.67578 7.2574,6.39726 10.88477,16.82608 10.88477,31.28711 l 0,51.52929 -29.10938,0 0,-13.38671 c -3.87061,5.48336 -8.22424,9.48897 -13.0625,12.01562 -4.83826,2.47289 -10.72531,3.70899 -17.66015,3.70899 -9.35398,0 -16.96064,-2.71493 -22.82032,-8.14454 -5.80591,-5.48336 -8.70898,-12.58018 -8.70898,-21.28906 0,-10.59042 3.62932,-18.35891 10.88672,-23.30469 7.31115,-4.94578 18.7616,-7.41796 34.35156,-7.41796 l 17.01367,0 0,-2.25782 c 0,-4.56947 -1.80052,-7.90146 -5.40234,-9.99804 -3.60182,-2.15034 -9.21981,-3.22657 -16.85352,-3.22657 -6.18222,0 -11.93377,0.61903 -17.25586,1.85547 -5.32209,1.23645 -10.26842,3.08961 -14.83789,5.5625 l 0,-22.01367 c 6.18223,-1.50524 12.39097,-2.6341 18.62696,-3.38672 6.23598,-0.80638 12.473,-1.20898 18.70898,-1.20898 z m -174.25977,2.17773 28.86915,0 0,90.31445 -28.86915,0 0,-90.31445 z m 176.27539,49.67188 c -6.02094,0 -10.56467,1.02163 -13.6289,3.06445 -3.01048,2.04282 -4.51563,5.05312 -4.51563,9.03125 0,3.65558 1.20978,6.53233 3.62891,8.62891 2.47289,2.04282 5.88775,3.06445 10.24219,3.06445 5.4296,0 9.99769,-1.93603 13.70703,-5.80664 3.70933,-3.92437 5.56445,-8.81611 5.56445,-14.67578 l 0,-3.30664 -14.99805,0 z"
         id="path4147"
         inkscape:connector-curvature="0" />
      <text
         xml:space="preserve"
         style="font-style:normal;font-weight:normal;font-size:165.14604187px;line-height:125%;font-family:sans-serif;letter-spacing:0px;word-spacing:0px;fill:#ffffff;fill-opacity:1;stroke:none;stroke-width:1px;stroke-linecap:butt;stroke-linejoin:miter;stroke-opacity:1"
         x="46.029758"
         y="267.13965"
         id="text4149"
         sodipodi:linespacing="125%"><tspan
           sodipodi:role="line"
           id="tspan4151"
           x="46.029758"
           y="267.13965"
           style="font-weight:bold;fill:#ffffff">Na</tspan></text>
    </g>
    <g
       style="fill:#00aa00"
       id="g4155"
       transform="matrix(0.96564663,0,0,0.96564663,12.687077,807.90862)">
      <path
         inkscape:connector-curvature="0"
         id="path4157"
         d="M 482.50977,10.652344 A 194.92133,194.92133 0 0 0 287.58984,205.57227 194.92133,194.92133 0 0 0 482.50977,400.49414 194.92133,194.92133 0 0 0 677.43164,205.57227 194.92133,194.92133 0 0 0 482.50977,10.652344 Z m -51.33204,131.015626 28.86915,0 0,23.54492 -28.86915,0 0,-23.54492 z m -61.6875,2.90234 c 6.71981,0 13.1713,0.75258 19.35352,2.25781 6.18222,1.50524 12.12191,3.73665 17.82031,6.69336 l 0,24.91602 c -5.75215,-3.92437 -11.42279,-6.79916 -17.01367,-8.62695 -5.59088,-1.82779 -11.47793,-2.74219 -17.66016,-2.74219 -11.07424,0 -19.78345,3.54841 -26.12695,10.64453 -6.3435,7.09612 -9.51562,16.8796 -9.51562,29.35156 0,12.41821 3.17212,22.17537 9.51562,29.27149 6.3435,7.09612 15.05271,10.64453 26.12695,10.64453 6.18223,0 12.06928,-0.9144 17.66016,-2.74219 5.59088,-1.82779 11.26152,-4.70454 17.01367,-8.6289 l 0,24.91796 c -5.6984,2.95672 -11.63809,5.18813 -17.82031,6.69336 -6.18222,1.50524 -12.63371,2.25782 -19.35352,2.25782 -20.05191,0 -35.9369,-5.59168 -47.65625,-16.77344 -11.71934,-11.23552 -17.58007,-26.44885 -17.58007,-45.64063 0,-19.24553 5.86073,-34.45886 17.58007,-45.64062 11.71935,-11.23552 27.60434,-16.85352 47.65625,-16.85352 z m 121.11915,6.61133 28.86718,0 0,25.64453 29.75586,0 0,20.64258 -29.75586,0 0,38.30273 c 0,4.19317 0.83349,7.04164 2.5,8.54688 1.66652,1.45148 4.97219,2.17773 9.91797,2.17773 l 14.83789,0 0,20.64453 -24.75586,0 c -11.39679,0 -19.48698,-2.36691 -24.27148,-7.09765 -4.73075,-4.78451 -7.09571,-12.87469 -7.0957,-24.27149 l 0,-38.30273 -14.35352,0 0,-20.64258 14.35352,0 0,-25.64453 z m 114.82812,23.4668 c 16.28882,0 28.03465,3.22476 35.23828,9.67578 7.2574,6.39726 10.88477,16.82608 10.88477,31.28711 l 0,51.52929 -29.10938,0 0,-13.38671 c -3.87061,5.48336 -8.22424,9.48897 -13.0625,12.01562 -4.83826,2.47289 -10.72531,3.70899 -17.66015,3.70899 -9.35398,0 -16.96064,-2.71493 -22.82032,-8.14454 -5.80591,-5.48336 -8.70898,-12.58018 -8.70898,-21.28906 0,-10.59042 3.62932,-18.35891 10.88672,-23.30469 7.31115,-4.94578 18.7616,-7.41796 34.35156,-7.41796 l 17.01367,0 0,-2.25782 c 0,-4.56947 -1.80052,-7.90146 -5.40234,-9.99804 -3.60182,-2.15034 -9.21981,-3.22657 -16.85352,-3.22657 -6.18222,0 -11.93377,0.61903 -17.25586,1.85547 -5.32209,1.23645 -10.26842,3.08961 -14.83789,5.5625 l 0,-22.01367 c 6.18223,-1.50524 12.39097,-2.6341 18.62696,-3.38672 6.23598,-0.80638 12.473,-1.20898 18.70898,-1.20898 z m -174.25977,2.17773 28.86915,0 0,90.31445 -28.86915,0 0,-90.31445 z m 176.27539,49.67188 c -6.02094,0 -10.56467,1.02163 -13.6289,3.06445 -3.01048,2.04282 -4.51563,5.05312 -4.51563,9.03125 0,3.65558 1.20978,6.53233 3.62891,8.62891 2.47289,2.04282 5.88775,3.06445 10.24219,3.06445 5.4296,0 9.99769,-1.93603 13.70703,-5.80664 3.70933,-3.92437 5.56445,-8.81611 5.56445,-14.67578 l 0,-3.30664 -14.99805,0 z"
         style="opacity:1;fill:#00aa00;fill-opacity:1;fill-rule:nonzero;stroke:none;stroke-width:10;stroke-linejoin:round;stroke-miterlimit:4;stroke-dasharray:none;stroke-opacity:1" />
      <text
         sodipodi:linespacing="125%"
         id="text4159"
         y="267.13965"
         x="46.029758"
         style="font-style:normal;font-weight:normal;font-size:165.14604187px;line-height:125%;font-family:sans-serif;letter-spacing:0px;word-spacing:0px;fill:#00aa00;fill-opacity:1;stroke:none;stroke-width:1px;stroke-linecap:butt;stroke-linejoin:miter;stroke-opacity:1"
         xml:space="preserve"><tspan
           style="font-weight:bold;fill:#00aa00"
           y="267.13965"
           x="46.029758"
           id="tspan4161"
           sodipodi:role="line">Na</tspan></text>
    </g>
  </g>
</svg>
